<?xml version="1.0" standalone="no"?>
<!DOCTYPE svg PUBLIC "-//W3C//DTD SVG 20010904//EN"
 "http://www.w3.org/TR/2001/REC-SVG-20010904/DTD/svg10.dtd">
<svg version="1.0" xmlns="http://www.w3.org/2000/svg"
 width="600.000000pt" height="600.000000pt" viewBox="0 0 600.000000 600.000000"
 preserveAspectRatio="xMidYMid meet">
<metadata>
Created by potrace 1.11, written by Peter Selinger 2001-2013
</metadata>
<g transform="translate(0.000000,600.000000) scale(0.100000,-0.100000)"
fill="#000000" stroke="none">
<path d="M2798 5996 c-1 -2 -41 -6 -87 -10 -46 -3 -86 -8 -90 -10 -3 -2 -37
-7 -76 -11 -38 -3 -72 -8 -75 -10 -4 -2 -22 -7 -41 -10 -130 -22 -426 -108
-534 -155 -257 -112 -382 -178 -555 -293 -303 -202 -567 -457 -782 -757 -41
-58 -88 -127 -104 -153 -16 -27 -38 -63 -48 -80 -10 -18 -30 -52 -43 -77 -13
-25 -28 -52 -33 -60 -60 -99 -172 -389 -225 -583 -28 -102 -30 -112 -45 -192
-6 -27 -12 -61 -15 -75 -3 -14 -8 -45 -11 -70 -3 -25 -7 -56 -10 -70 -19 -117
-26 -518 -11 -673 9 -90 39 -273 60 -367 8 -36 14 -74 15 -85 0 -16 45 -150
97 -290 4 -11 13 -36 20 -55 46 -124 164 -361 244 -488 95 -152 214 -311 311
-416 358 -390 707 -627 1210 -825 159 -63 167 -66 233 -95 24 -10 51 -14 70
-11 18 4 75 -3 127 -14 94 -20 188 -34 318 -48 134 -15 575 -7 667 11 11 2 55
9 98 16 104 15 129 20 149 26 9 3 25 6 35 8 89 18 359 101 438 136 199 87 254
113 359 173 261 147 462 301 671 513 55 56 109 112 120 125 36 42 110 133 117
144 4 5 18 24 31 40 13 17 49 68 81 115 31 47 60 90 64 95 11 15 59 99 88 152
13 27 29 55 34 63 15 25 87 182 110 240 89 227 161 490 185 675 29 226 33 276
30 490 -2 127 -6 244 -8 260 -3 17 -9 59 -13 95 -4 36 -8 67 -9 70 -1 3 -5 28
-9 55 -20 125 -99 424 -136 510 -5 11 -21 52 -35 90 -39 101 -145 315 -210
424 -53 86 -192 289 -218 316 -7 7 -37 43 -67 80 -60 75 -247 265 -326 332
-75 64 -175 143 -204 161 -14 9 -27 19 -30 22 -9 9 -143 97 -210 137 -36 21
-123 67 -195 102 -71 35 -138 67 -147 72 -82 41 -445 155 -558 175 -14 3 -61
11 -105 19 -44 8 -107 17 -140 21 -33 4 -69 9 -80 11 -23 5 -491 13 -497 9z"/>
</g>
</svg>
